<mxfile host="app.diagrams.net" modified="2021-02-07T13:35:04.486Z" agent="5.0 (Windows NT 10.0; Win64; x64) AppleWebKit/537.36 (KHTML, like Gecko) Chrome/88.0.4324.150 Safari/537.36" etag="hX8OuHVWG6Fj-rUYm3nf" version="14.2.9" type="github">
  <diagram id="C5RBs43oDa-KdzZeNtuy" name="Page-1">
    <mxGraphModel dx="593" dy="313" grid="1" gridSize="10" guides="1" tooltips="1" connect="1" arrows="1" fold="1" page="1" pageScale="1" pageWidth="827" pageHeight="1169" background="#ffffff" math="0" shadow="0">
      <root>
        <mxCell id="WIyWlLk6GJQsqaUBKTNV-0" />
        <mxCell id="WIyWlLk6GJQsqaUBKTNV-1" parent="WIyWlLk6GJQsqaUBKTNV-0" />
        <mxCell id="WgdSejzUSwL9TSCPINQa-335" value="" style="edgeStyle=orthogonalEdgeStyle;curved=1;rounded=0;sketch=0;orthogonalLoop=1;jettySize=auto;html=1;shadow=0;startArrow=none;startFill=0;endArrow=classic;endFill=1;fontSize=12;fontColor=#000000;" parent="WIyWlLk6GJQsqaUBKTNV-1" source="WgdSejzUSwL9TSCPINQa-148" target="WgdSejzUSwL9TSCPINQa-149" edge="1">
          <mxGeometry relative="1" as="geometry" />
        </mxCell>
        <mxCell id="PD33SkjgevjiZklMwX0k-13" value="" style="edgeStyle=orthogonalEdgeStyle;rounded=0;orthogonalLoop=1;jettySize=auto;html=1;" edge="1" parent="WIyWlLk6GJQsqaUBKTNV-1" source="WgdSejzUSwL9TSCPINQa-148" target="WgdSejzUSwL9TSCPINQa-324">
          <mxGeometry relative="1" as="geometry">
            <Array as="points">
              <mxPoint x="190" y="100" />
              <mxPoint x="190" y="100" />
            </Array>
          </mxGeometry>
        </mxCell>
        <mxCell id="WgdSejzUSwL9TSCPINQa-148" value="&lt;b&gt;&lt;font color=&quot;#ffffff&quot;&gt;irqEntry()&lt;/font&gt;&lt;/b&gt;" style="rounded=1;whiteSpace=wrap;html=1;glass=0;sketch=0;align=center;fillColor=#ADADAD;strokeColor=none;" parent="WIyWlLk6GJQsqaUBKTNV-1" vertex="1">
          <mxGeometry x="110" y="20" width="120" height="40" as="geometry" />
        </mxCell>
        <mxCell id="WgdSejzUSwL9TSCPINQa-149" value="&lt;b&gt;&lt;font style=&quot;background-color: rgb(248 , 247 , 247)&quot; color=&quot;#333333&quot;&gt;startup.S&lt;/font&gt;&lt;/b&gt;" style="text;html=1;strokeColor=none;align=center;verticalAlign=middle;whiteSpace=wrap;rounded=1;glass=0;sketch=0;fillColor=#F8F7F7;" parent="WIyWlLk6GJQsqaUBKTNV-1" vertex="1">
          <mxGeometry x="300" y="25" width="80" height="30" as="geometry" />
        </mxCell>
        <mxCell id="WgdSejzUSwL9TSCPINQa-324" value="&lt;font color=&quot;#ffffff&quot;&gt;&lt;b&gt;archIntEntry()&lt;/b&gt;&lt;/font&gt;" style="rounded=1;whiteSpace=wrap;html=1;glass=0;sketch=0;align=center;fillColor=#ADADAD;strokeColor=none;" parent="WIyWlLk6GJQsqaUBKTNV-1" vertex="1">
          <mxGeometry x="110" y="140" width="120" height="40" as="geometry" />
        </mxCell>
        <mxCell id="WgdSejzUSwL9TSCPINQa-330" value="&lt;font color=&quot;#333333&quot;&gt;&lt;b&gt;armExcAsm.S&lt;/b&gt;&lt;/font&gt;" style="text;html=1;strokeColor=none;align=center;verticalAlign=middle;whiteSpace=wrap;rounded=1;glass=0;sketch=0;fillColor=#F8F7F7;" parent="WIyWlLk6GJQsqaUBKTNV-1" vertex="1">
          <mxGeometry x="280" y="180" width="100" height="22" as="geometry" />
        </mxCell>
        <mxCell id="WgdSejzUSwL9TSCPINQa-341" value="" style="strokeWidth=2;html=1;shape=mxgraph.flowchart.annotation_2;align=left;labelPosition=right;pointerEvents=1;rounded=0;glass=0;labelBackgroundColor=none;sketch=0;fillColor=none;gradientColor=none;fontSize=12;fontColor=#000000;" parent="WIyWlLk6GJQsqaUBKTNV-1" vertex="1">
          <mxGeometry x="230" y="131" width="50" height="60" as="geometry" />
        </mxCell>
        <mxCell id="WgdSejzUSwL9TSCPINQa-342" value="" style="group;rounded=1;" parent="WIyWlLk6GJQsqaUBKTNV-1" vertex="1" connectable="0">
          <mxGeometry x="280" y="96" width="100" height="50" as="geometry" />
        </mxCell>
        <mxCell id="WgdSejzUSwL9TSCPINQa-343" value="" style="group" parent="WgdSejzUSwL9TSCPINQa-342" vertex="1" connectable="0">
          <mxGeometry width="100" height="50" as="geometry" />
        </mxCell>
        <mxCell id="WgdSejzUSwL9TSCPINQa-338" value="" style="whiteSpace=wrap;html=1;rounded=0;glass=0;labelBackgroundColor=none;sketch=0;gradientColor=none;fontSize=12;fontColor=#000000;align=left;dashed=1;fillColor=none;strokeColor=#FF1241;" parent="WgdSejzUSwL9TSCPINQa-343" vertex="1">
          <mxGeometry y="20" width="100" height="30" as="geometry" />
        </mxCell>
        <mxCell id="WgdSejzUSwL9TSCPINQa-340" value="&lt;font style=&quot;font-size: 10px&quot;&gt;暴露接口&lt;/font&gt;" style="html=1;shadow=0;dashed=0;shape=mxgraph.bootstrap.rrect;rSize=5;strokeColor=none;strokeWidth=1;fillColor=#DB2843;fontColor=#FFFFFF;whiteSpace=wrap;align=left;verticalAlign=middle;spacingLeft=0;fontStyle=1;fontSize=14;spacing=5;rounded=0;glass=0;labelBackgroundColor=none;sketch=0;" parent="WgdSejzUSwL9TSCPINQa-343" vertex="1">
          <mxGeometry width="60" height="20" as="geometry" />
        </mxCell>
        <mxCell id="WgdSejzUSwL9TSCPINQa-326" value="&lt;b&gt;&lt;font style=&quot;background-color: rgb(248 , 247 , 247)&quot; color=&quot;#333333&quot;&gt;arm_support.h&lt;/font&gt;&lt;/b&gt;" style="text;html=1;strokeColor=none;align=center;verticalAlign=middle;whiteSpace=wrap;rounded=0;glass=0;sketch=0;fillColor=#F8F7F7;" parent="WgdSejzUSwL9TSCPINQa-343" vertex="1">
          <mxGeometry y="26" width="100" height="18" as="geometry" />
        </mxCell>
        <mxCell id="PD33SkjgevjiZklMwX0k-0" value="archIntEntry" style="shape=table;html=1;whiteSpace=wrap;startSize=30;container=1;collapsible=0;childLayout=tableLayout;fontStyle=1;align=center;" vertex="1" parent="WIyWlLk6GJQsqaUBKTNV-1">
          <mxGeometry x="440" y="46" width="230" height="134" as="geometry" />
        </mxCell>
        <mxCell id="PD33SkjgevjiZklMwX0k-1" value="" style="shape=partialRectangle;html=1;whiteSpace=wrap;collapsible=0;dropTarget=0;pointerEvents=0;fillColor=none;top=0;left=0;bottom=0;right=0;points=[[0,0.5],[1,0.5]];portConstraint=eastwest;" vertex="1" parent="PD33SkjgevjiZklMwX0k-0">
          <mxGeometry y="30" width="230" height="24" as="geometry" />
        </mxCell>
        <mxCell id="PD33SkjgevjiZklMwX0k-2" value="SUB&amp;nbsp; &amp;nbsp; &amp;nbsp;LR , LR, #4" style="shape=partialRectangle;html=1;whiteSpace=wrap;connectable=0;fillColor=none;top=0;left=0;bottom=0;right=0;overflow=hidden;" vertex="1" parent="PD33SkjgevjiZklMwX0k-1">
          <mxGeometry width="120" height="24" as="geometry" />
        </mxCell>
        <mxCell id="PD33SkjgevjiZklMwX0k-3" value="" style="shape=partialRectangle;html=1;whiteSpace=wrap;connectable=0;fillColor=none;top=0;left=0;bottom=0;right=0;overflow=hidden;" vertex="1" parent="PD33SkjgevjiZklMwX0k-1">
          <mxGeometry x="120" width="110" height="24" as="geometry" />
        </mxCell>
        <mxCell id="PD33SkjgevjiZklMwX0k-5" value="" style="shape=partialRectangle;html=1;whiteSpace=wrap;collapsible=0;dropTarget=0;pointerEvents=0;fillColor=none;top=0;left=0;bottom=0;right=0;points=[[0,0.5],[1,0.5]];portConstraint=eastwest;" vertex="1" parent="PD33SkjgevjiZklMwX0k-0">
          <mxGeometry y="54" width="230" height="40" as="geometry" />
        </mxCell>
        <mxCell id="PD33SkjgevjiZklMwX0k-6" value="" style="shape=partialRectangle;html=1;whiteSpace=wrap;connectable=0;fillColor=none;top=0;left=0;bottom=0;right=0;overflow=hidden;" vertex="1" parent="PD33SkjgevjiZklMwX0k-5">
          <mxGeometry width="120" height="40" as="geometry" />
        </mxCell>
        <mxCell id="PD33SkjgevjiZklMwX0k-7" value="" style="shape=partialRectangle;html=1;whiteSpace=wrap;connectable=0;fillColor=none;top=0;left=0;bottom=0;right=0;overflow=hidden;" vertex="1" parent="PD33SkjgevjiZklMwX0k-5">
          <mxGeometry x="120" width="110" height="40" as="geometry" />
        </mxCell>
        <mxCell id="PD33SkjgevjiZklMwX0k-9" value="" style="shape=partialRectangle;html=1;whiteSpace=wrap;collapsible=0;dropTarget=0;pointerEvents=0;fillColor=none;top=0;left=0;bottom=0;right=0;points=[[0,0.5],[1,0.5]];portConstraint=eastwest;" vertex="1" parent="PD33SkjgevjiZklMwX0k-0">
          <mxGeometry y="94" width="230" height="40" as="geometry" />
        </mxCell>
        <mxCell id="PD33SkjgevjiZklMwX0k-10" value="" style="shape=partialRectangle;html=1;whiteSpace=wrap;connectable=0;fillColor=none;top=0;left=0;bottom=0;right=0;overflow=hidden;" vertex="1" parent="PD33SkjgevjiZklMwX0k-9">
          <mxGeometry width="120" height="40" as="geometry" />
        </mxCell>
        <mxCell id="PD33SkjgevjiZklMwX0k-11" value="" style="shape=partialRectangle;html=1;whiteSpace=wrap;connectable=0;fillColor=none;top=0;left=0;bottom=0;right=0;overflow=hidden;" vertex="1" parent="PD33SkjgevjiZklMwX0k-9">
          <mxGeometry x="120" width="110" height="40" as="geometry" />
        </mxCell>
      </root>
    </mxGraphModel>
  </diagram>
</mxfile>
